<svg width="968.328mm" height="333.398mm" viewBox="0 0 968.328 333.398" xmlns="http://www.w3.org/2000/svg" version="1.1" preserveAspectRatio="xMidYMid meet"><g id="svgGroup" stroke-linecap="round" fill-rule="evenodd" font-size="9pt" stroke="#000" stroke-width="0.25mm" fill="none" style="stroke:#000;stroke-width:0.25mm;fill:none"><path d="M 188.759 38.5 L 182.121 38.5 L 182.121 35.5 L 176.121 35.5 L 176.121 38.5 L 170.121 38.5 L 170.121 35.5 L 164.121 35.5 L 164.121 38.5 L 158.121 38.5 L 158.121 35.5 L 152.121 35.5 L 152.121 38.5 L 146.121 38.5 L 146.121 35.5 L 140.121 35.5 L 140.121 38.5 L 134.121 38.5 L 134.121 35.5 L 128.121 35.5 L 128.121 38.5 L 122.121 38.5 L 122.121 35.5 L 116.121 35.5 L 116.121 38.5 L 110.121 38.5 L 110.121 35.5 L 104.121 35.5 L 104.121 38.5 L 98.121 38.5 L 98.121 35.5 L 92.121 35.5 L 92.121 38.5 L 86.121 38.5 L 86.121 35.5 L 80.121 35.5 L 80.121 38.5 L 74.121 38.5 L 74.121 35.5 L 68.121 35.5 L 68.121 38.5 L 62.121 38.5 L 62.121 35.5 L 56.121 35.5 L 56.121 38.5 L 50.121 38.5 L 50.121 35.5 L 44.121 35.5 L 44.121 38.5 L 37.483 38.5 L 34.985 38.591 L 32.5 38.862 L 30.042 39.312 L 27.622 39.94 L 25.255 40.741 L 22.951 41.711 L 20.724 42.846 L 18.585 44.139 L 16.546 45.584 L 14.616 47.172 L 12.807 48.897 L 11.127 50.747 L 9.585 52.715 L 8.19 54.789 L 6.949 56.959 L 5.869 59.212 L 4.954 61.539 L 4.211 63.925 L 3.642 66.359 L 3.251 68.827 L 3.04 71.318 L 3 72.983 L 3 85.449 L 0 85.449 L 0 91.449 L 3 91.449 L 3 97.449 L 0 97.449 L 0 103.449 L 3 103.449 L 3 109.449 L 0 109.449 L 0 115.449 L 3 115.449 L 3 121.449 L 0 121.449 L 0 127.449 L 3 127.449 L 3 133.449 L 0 133.449 L 0 139.449 L 3 139.449 L 3 145.449 L 0 145.449 L 0 151.449 L 3 151.449 L 3 157.449 L 0 157.449 L 0 163.449 L 3 163.449 L 3 169.449 L 0 169.449 L 0 175.449 L 3 175.449 L 3 181.449 L 0 181.449 L 0 187.449 L 3 187.449 L 3 193.449 L 0 193.449 L 0 199.449 L 3 199.449 L 3 205.449 L 0 205.449 L 0 211.449 L 3 211.449 L 3 217.449 L 0 217.449 L 0 223.449 L 3 223.449 L 3 229.449 L 0 229.449 L 0 235.449 L 3 235.449 L 3 241.449 L 0 241.449 L 0 247.449 L 3 247.449 L 3 253.449 L 0 253.449 L 0 259.449 L 3 259.449 L 3 265.449 L 0 265.449 L 0 271.449 L 3 271.449 L 3 277.449 L 0 277.449 L 0 283.449 L 3 283.449 L 3 289.449 L 3 295.915 L 3.091 298.413 L 3.362 300.898 L 3.812 303.356 L 4.44 305.776 L 5.241 308.143 L 6.211 310.447 L 7.346 312.674 L 8.639 314.813 L 10.084 316.853 L 11.672 318.782 L 13.397 320.592 L 15.247 322.272 L 17.215 323.813 L 19.289 325.208 L 21.459 326.449 L 23.712 327.529 L 26.039 328.444 L 28.425 329.187 L 30.859 329.756 L 33.327 330.147 L 35.818 330.358 L 37.483 330.398 L 42.302 330.398 L 42.302 333.398 L 48.302 333.398 L 48.302 330.398 L 54.302 330.398 L 54.302 333.398 L 60.302 333.398 L 60.302 330.398 L 66.302 330.398 L 66.302 333.398 L 72.302 333.398 L 72.302 330.398 L 78.302 330.398 L 78.302 333.398 L 84.302 333.398 L 84.302 330.398 L 90.302 330.398 L 90.302 333.398 L 96.302 333.398 L 96.302 330.398 L 102.302 330.398 L 102.302 333.398 L 108.302 333.398 L 108.302 330.398 L 113.121 330.398 L 117.94 330.398 L 117.94 333.398 L 123.94 333.398 L 123.94 330.398 L 129.94 330.398 L 129.94 333.398 L 135.94 333.398 L 135.94 330.398 L 141.94 330.398 L 141.94 333.398 L 147.94 333.398 L 147.94 330.398 L 153.94 330.398 L 153.94 333.398 L 159.94 333.398 L 159.94 330.398 L 165.94 330.398 L 165.94 333.398 L 171.94 333.398 L 171.94 330.398 L 177.94 330.398 L 177.94 333.398 L 183.94 333.398 L 183.94 330.398 L 188.759 330.398 L 191.256 330.308 L 193.741 330.036 L 196.2 329.586 L 198.619 328.958 L 200.987 328.157 L 203.29 327.187 L 205.517 326.052 L 207.656 324.759 L 209.696 323.314 L 211.625 321.726 L 213.435 320.002 L 215.115 318.151 L 216.656 316.183 L 218.051 314.109 L 219.292 311.94 L 220.372 309.686 L 221.287 307.36 L 222.03 304.973 L 222.599 302.539 L 222.99 300.071 L 223.201 297.58 L 223.241 295.915 L 223.241 283.449 L 226.241 283.449 L 226.241 277.449 L 223.241 277.449 L 223.241 271.449 L 226.241 271.449 L 226.241 265.449 L 223.241 265.449 L 223.241 259.449 L 226.241 259.449 L 226.241 253.449 L 223.241 253.449 L 223.241 247.449 L 226.241 247.449 L 226.241 241.449 L 223.241 241.449 L 223.241 235.449 L 226.241 235.449 L 226.241 229.449 L 223.241 229.449 L 223.241 223.449 L 226.241 223.449 L 226.241 217.449 L 223.241 217.449 L 223.241 211.449 L 226.241 211.449 L 226.241 205.449 L 223.241 205.449 L 223.241 199.449 L 226.241 199.449 L 226.241 193.449 L 223.241 193.449 L 223.241 187.449 L 226.241 187.449 L 226.241 181.449 L 223.241 181.449 L 223.241 175.449 L 226.241 175.449 L 226.241 169.449 L 223.241 169.449 L 223.241 163.449 L 226.241 163.449 L 226.241 157.449 L 223.241 157.449 L 223.241 151.449 L 226.241 151.449 L 226.241 145.449 L 223.241 145.449 L 223.241 139.449 L 226.241 139.449 L 226.241 133.449 L 223.241 133.449 L 223.241 127.449 L 226.241 127.449 L 226.241 121.449 L 223.241 121.449 L 223.241 115.449 L 226.241 115.449 L 226.241 109.449 L 223.241 109.449 L 223.241 103.449 L 226.241 103.449 L 226.241 97.449 L 223.241 97.449 L 223.241 91.449 L 226.241 91.449 L 226.241 85.449 L 223.241 85.449 L 223.241 79.449 L 223.241 72.983 L 223.151 70.485 L 222.879 68 L 222.429 65.542 L 221.801 63.122 L 221 60.755 L 220.03 58.451 L 218.895 56.224 L 217.602 54.085 L 216.157 52.046 L 214.569 50.116 L 212.845 48.307 L 210.994 46.627 L 209.026 45.085 L 206.952 43.69 L 204.783 42.449 L 202.529 41.369 L 200.203 40.454 L 197.816 39.711 L 195.383 39.142 L 192.914 38.751 L 190.423 38.54 L 188.759 38.5 Z" id="TOP_outsideCutPath" stroke="#FF0000" stroke-width="0.1" style="stroke:#FF0000;stroke-width:0.1" vector-effect="non-scaling-stroke"/><path d="M 84.708 171.668 L 84.708 200.633 L 80.952 200.633 L 80.952 171.668 L 70.722 171.668 L 70.722 168.332 L 94.937 168.332 L 94.937 171.668 L 84.708 171.668 Z M 127.371 189.378 A 24.751 24.751 0 0 0 127.835 184.438 Q 127.835 180.914 127.032 178.08 A 14.714 14.714 0 0 0 123.924 172.242 Q 120.014 167.823 113.054 167.823 Q 105.896 167.823 102.007 172.165 A 13.268 13.268 0 0 0 100.234 174.688 Q 99.06 176.847 98.537 179.6 A 25.742 25.742 0 0 0 98.119 184.394 A 29.767 29.767 0 0 0 98.191 186.494 Q 98.374 189.093 99.028 191.257 A 14.317 14.317 0 0 0 101.996 196.711 A 12.5 12.5 0 0 0 108.489 200.559 A 18.67 18.67 0 0 0 113.01 201.075 Q 119.992 201.075 123.913 196.634 Q 126.487 193.72 127.371 189.378 Z M 142.594 187.929 L 138.793 187.929 L 138.793 200.633 L 135.037 200.633 L 135.037 168.332 L 143.411 168.332 A 22.844 22.844 0 0 1 147.83 168.72 Q 154.836 170.108 155.458 176.459 A 13.183 13.183 0 0 1 155.519 177.744 A 11.454 11.454 0 0 1 155.096 180.945 A 8.377 8.377 0 0 1 152.171 185.289 Q 149.549 187.357 145.158 187.805 A 25.29 25.29 0 0 1 142.594 187.929 Z M 102.096 184.438 Q 102.096 191 104.89 194.391 A 9.038 9.038 0 0 0 110.215 197.515 A 13.798 13.798 0 0 0 113.01 197.783 Q 118.379 197.783 121.118 194.402 Q 123.858 191.022 123.858 184.438 A 24.932 24.932 0 0 0 123.605 180.759 Q 123.32 178.856 122.716 177.323 A 10.458 10.458 0 0 0 121.129 174.551 A 8.782 8.782 0 0 0 116.069 171.495 A 13.691 13.691 0 0 0 113.054 171.182 A 13.58 13.58 0 0 0 109.808 171.547 A 8.952 8.952 0 0 0 104.89 174.573 Q 102.096 177.965 102.096 184.438 Z M 138.793 171.579 L 138.793 184.703 L 142.174 184.703 A 24.65 24.65 0 0 0 144.632 184.589 Q 147.76 184.275 149.399 183.09 Q 151.63 181.478 151.63 177.92 A 7.739 7.739 0 0 0 151.415 176.036 A 5.005 5.005 0 0 0 149.531 173.148 A 6.53 6.53 0 0 0 147.72 172.223 Q 146.024 171.644 143.549 171.586 A 23.9 23.9 0 0 0 142.991 171.579 L 138.793 171.579 Z" id="TOP_labelLayer" stroke="#777777" fill="#777777" style="stroke:#777777;fill:#777777" vector-effect="non-scaling-stroke"/><path d="M 418 38.5 L 411.362 38.5 L 411.362 35.5 L 405.362 35.5 L 405.362 38.5 L 399.362 38.5 L 399.362 35.5 L 393.362 35.5 L 393.362 38.5 L 387.362 38.5 L 387.362 35.5 L 381.362 35.5 L 381.362 38.5 L 375.362 38.5 L 375.362 35.5 L 369.362 35.5 L 369.362 38.5 L 363.362 38.5 L 363.362 35.5 L 357.362 35.5 L 357.362 38.5 L 351.362 38.5 L 351.362 35.5 L 345.362 35.5 L 345.362 38.5 L 339.362 38.5 L 339.362 35.5 L 333.362 35.5 L 333.362 38.5 L 327.362 38.5 L 327.362 35.5 L 321.362 35.5 L 321.362 38.5 L 315.362 38.5 L 315.362 35.5 L 309.362 35.5 L 309.362 38.5 L 303.362 38.5 L 303.362 35.5 L 297.362 35.5 L 297.362 38.5 L 291.362 38.5 L 291.362 35.5 L 285.362 35.5 L 285.362 38.5 L 279.362 38.5 L 279.362 35.5 L 273.362 35.5 L 273.362 38.5 L 266.724 38.5 L 264.226 38.591 L 261.742 38.862 L 259.283 39.312 L 256.864 39.94 L 254.496 40.741 L 252.193 41.711 L 249.966 42.846 L 247.827 44.139 L 245.787 45.584 L 243.857 47.172 L 242.048 48.897 L 240.368 50.747 L 238.826 52.715 L 237.432 54.789 L 236.191 56.959 L 235.11 59.212 L 234.196 61.539 L 233.452 63.925 L 232.884 66.359 L 232.493 68.827 L 232.282 71.318 L 232.241 72.983 L 232.241 85.449 L 229.241 85.449 L 229.241 91.449 L 232.241 91.449 L 232.241 97.449 L 229.241 97.449 L 229.241 103.449 L 232.241 103.449 L 232.241 109.449 L 229.241 109.449 L 229.241 115.449 L 232.241 115.449 L 232.241 121.449 L 229.241 121.449 L 229.241 127.449 L 232.241 127.449 L 232.241 133.449 L 229.241 133.449 L 229.241 139.449 L 232.241 139.449 L 232.241 145.449 L 229.241 145.449 L 229.241 151.449 L 232.241 151.449 L 232.241 157.449 L 229.241 157.449 L 229.241 163.449 L 232.241 163.449 L 232.241 169.449 L 229.241 169.449 L 229.241 175.449 L 232.241 175.449 L 232.241 181.449 L 229.241 181.449 L 229.241 187.449 L 232.241 187.449 L 232.241 193.449 L 229.241 193.449 L 229.241 199.449 L 232.241 199.449 L 232.241 205.449 L 229.241 205.449 L 229.241 211.449 L 232.241 211.449 L 232.241 217.449 L 229.241 217.449 L 229.241 223.449 L 232.241 223.449 L 232.241 229.449 L 229.241 229.449 L 229.241 235.449 L 232.241 235.449 L 232.241 241.449 L 229.241 241.449 L 229.241 247.449 L 232.241 247.449 L 232.241 253.449 L 229.241 253.449 L 229.241 259.449 L 232.241 259.449 L 232.241 265.449 L 229.241 265.449 L 229.241 271.449 L 232.241 271.449 L 232.241 277.449 L 229.241 277.449 L 229.241 283.449 L 232.241 283.449 L 232.241 289.449 L 232.241 295.915 L 232.332 298.413 L 232.603 300.898 L 233.054 303.356 L 233.681 305.776 L 234.482 308.143 L 235.453 310.447 L 236.587 312.674 L 237.881 314.813 L 239.325 316.853 L 240.914 318.782 L 242.638 320.592 L 244.489 322.272 L 246.456 323.813 L 248.53 325.208 L 250.7 326.449 L 252.954 327.529 L 255.28 328.444 L 257.666 329.187 L 260.1 329.756 L 262.569 330.147 L 265.059 330.358 L 266.724 330.398 L 271.543 330.398 L 271.543 333.398 L 277.543 333.398 L 277.543 330.398 L 283.543 330.398 L 283.543 333.398 L 289.543 333.398 L 289.543 330.398 L 295.543 330.398 L 295.543 333.398 L 301.543 333.398 L 301.543 330.398 L 307.543 330.398 L 307.543 333.398 L 313.543 333.398 L 313.543 330.398 L 319.543 330.398 L 319.543 333.398 L 325.543 333.398 L 325.543 330.398 L 331.543 330.398 L 331.543 333.398 L 337.543 333.398 L 337.543 330.398 L 342.362 330.398 L 347.181 330.398 L 347.181 333.398 L 353.181 333.398 L 353.181 330.398 L 359.181 330.398 L 359.181 333.398 L 365.181 333.398 L 365.181 330.398 L 371.181 330.398 L 371.181 333.398 L 377.181 333.398 L 377.181 330.398 L 383.181 330.398 L 383.181 333.398 L 389.181 333.398 L 389.181 330.398 L 395.181 330.398 L 395.181 333.398 L 401.181 333.398 L 401.181 330.398 L 407.181 330.398 L 407.181 333.398 L 413.181 333.398 L 413.181 330.398 L 418 330.398 L 420.498 330.308 L 422.982 330.036 L 425.441 329.586 L 427.86 328.958 L 430.228 328.157 L 432.531 327.187 L 434.758 326.052 L 436.897 324.759 L 438.937 323.314 L 440.867 321.726 L 442.676 320.002 L 444.356 318.151 L 445.897 316.183 L 447.292 314.109 L 448.533 311.94 L 449.614 309.686 L 450.528 307.36 L 451.272 304.973 L 451.84 302.539 L 452.231 300.071 L 452.442 297.58 L 452.483 295.915 L 452.483 283.449 L 455.483 283.449 L 455.483 277.449 L 452.483 277.449 L 452.483 271.449 L 455.483 271.449 L 455.483 265.449 L 452.483 265.449 L 452.483 259.449 L 455.483 259.449 L 455.483 253.449 L 452.483 253.449 L 452.483 247.449 L 455.483 247.449 L 455.483 241.449 L 452.483 241.449 L 452.483 235.449 L 455.483 235.449 L 455.483 229.449 L 452.483 229.449 L 452.483 223.449 L 455.483 223.449 L 455.483 217.449 L 452.483 217.449 L 452.483 211.449 L 455.483 211.449 L 455.483 205.449 L 452.483 205.449 L 452.483 199.449 L 455.483 199.449 L 455.483 193.449 L 452.483 193.449 L 452.483 187.449 L 455.483 187.449 L 455.483 181.449 L 452.483 181.449 L 452.483 175.449 L 455.483 175.449 L 455.483 169.449 L 452.483 169.449 L 452.483 163.449 L 455.483 163.449 L 455.483 157.449 L 452.483 157.449 L 452.483 151.449 L 455.483 151.449 L 455.483 145.449 L 452.483 145.449 L 452.483 139.449 L 455.483 139.449 L 455.483 133.449 L 452.483 133.449 L 452.483 127.449 L 455.483 127.449 L 455.483 121.449 L 452.483 121.449 L 452.483 115.449 L 455.483 115.449 L 455.483 109.449 L 452.483 109.449 L 452.483 103.449 L 455.483 103.449 L 455.483 97.449 L 452.483 97.449 L 452.483 91.449 L 455.483 91.449 L 455.483 85.449 L 452.483 85.449 L 452.483 79.449 L 452.483 72.983 L 452.392 70.485 L 452.121 68 L 451.67 65.542 L 451.043 63.122 L 450.242 60.755 L 449.271 58.451 L 448.136 56.224 L 446.843 54.085 L 445.399 52.046 L 443.81 50.116 L 442.086 48.307 L 440.235 46.627 L 438.268 45.085 L 436.194 43.69 L 434.024 42.449 L 431.77 41.369 L 429.444 40.454 L 427.058 39.711 L 424.624 39.142 L 422.155 38.751 L 419.665 38.54 L 418 38.5 Z" id="BOTTOM_outsideCutPath" stroke="#FF0000" stroke-width="0.1" style="stroke:#FF0000;stroke-width:0.1" vector-effect="non-scaling-stroke"/><path d="M 418.619 200.633 L 415.592 200.633 L 404.634 171.999 L 404.457 171.999 Q 404.694 174.604 404.749 177.96 A 128.623 128.623 0 0 1 404.766 180.086 L 404.766 200.633 L 401.297 200.633 L 401.297 168.332 L 406.953 168.332 L 417.183 194.977 L 417.36 194.977 L 427.677 168.332 L 433.289 168.332 L 433.289 200.633 L 429.533 200.633 L 429.533 179.82 A 95.546 95.546 0 0 1 429.631 175.598 A 121.737 121.737 0 0 1 429.843 172.043 L 429.666 172.043 L 418.619 200.633 Z M 325.935 171.668 L 325.935 200.633 L 322.179 200.633 L 322.179 171.668 L 311.95 171.668 L 311.95 168.332 L 336.165 168.332 L 336.165 171.668 L 325.935 171.668 Z M 350.968 171.668 L 350.968 200.633 L 347.212 200.633 L 347.212 171.668 L 336.982 171.668 L 336.982 168.332 L 361.197 168.332 L 361.197 171.668 L 350.968 171.668 Z M 251.435 200.633 L 251.435 168.332 L 260.559 168.332 A 34.27 34.27 0 0 1 263.724 168.467 Q 267.752 168.842 269.861 170.254 A 6.243 6.243 0 0 1 272.565 174.449 A 9.95 9.95 0 0 1 272.733 176.33 Q 272.733 179.202 271.131 181.069 Q 269.592 182.863 266.695 183.443 A 12.252 12.252 0 0 1 266.458 183.488 L 266.458 183.709 A 12.984 12.984 0 0 1 269.503 184.586 Q 273.438 186.319 273.783 190.597 A 10.52 10.52 0 0 1 273.816 191.442 A 10.273 10.273 0 0 1 273.421 194.366 A 7.736 7.736 0 0 1 270.888 198.203 A 9.761 9.761 0 0 1 267.41 200.016 Q 265.995 200.44 264.301 200.573 A 20.499 20.499 0 0 1 262.702 200.633 L 251.435 200.633 Z M 308.327 189.378 A 24.751 24.751 0 0 0 308.79 184.438 Q 308.79 180.914 307.987 178.08 A 14.714 14.714 0 0 0 304.88 172.242 Q 300.969 167.823 294.01 167.823 Q 286.851 167.823 282.963 172.165 A 13.268 13.268 0 0 0 281.189 174.688 Q 280.015 176.847 279.493 179.6 A 25.742 25.742 0 0 0 279.074 184.394 A 29.767 29.767 0 0 0 279.146 186.494 Q 279.33 189.093 279.984 191.257 A 14.317 14.317 0 0 0 282.952 196.711 A 12.5 12.5 0 0 0 289.444 200.559 A 18.67 18.67 0 0 0 293.965 201.075 Q 300.947 201.075 304.869 196.634 Q 307.442 193.72 308.327 189.378 Z M 393.631 189.378 A 24.751 24.751 0 0 0 394.095 184.438 Q 394.095 180.914 393.292 178.08 A 14.714 14.714 0 0 0 390.184 172.242 Q 386.274 167.823 379.314 167.823 Q 372.156 167.823 368.267 172.165 A 13.268 13.268 0 0 0 366.494 174.688 Q 365.32 176.847 364.797 179.6 A 25.742 25.742 0 0 0 364.379 184.394 A 29.767 29.767 0 0 0 364.45 186.494 Q 364.634 189.093 365.288 191.257 A 14.317 14.317 0 0 0 368.256 196.711 A 12.5 12.5 0 0 0 374.749 200.559 A 18.67 18.67 0 0 0 379.27 201.075 Q 386.251 201.075 390.173 196.634 Q 392.747 193.72 393.631 189.378 Z M 283.051 184.438 Q 283.051 191 285.846 194.391 A 9.038 9.038 0 0 0 291.17 197.515 A 13.798 13.798 0 0 0 293.965 197.783 Q 299.334 197.783 302.074 194.402 Q 304.813 191.022 304.813 184.438 A 24.932 24.932 0 0 0 304.56 180.759 Q 304.276 178.856 303.672 177.323 A 10.458 10.458 0 0 0 302.085 174.551 A 8.782 8.782 0 0 0 297.025 171.495 A 13.691 13.691 0 0 0 294.01 171.182 A 13.58 13.58 0 0 0 290.763 171.547 A 8.952 8.952 0 0 0 285.846 174.573 Q 283.051 177.965 283.051 184.438 Z M 368.355 184.438 Q 368.355 191 371.15 194.391 A 9.038 9.038 0 0 0 376.475 197.515 A 13.798 13.798 0 0 0 379.27 197.783 Q 384.639 197.783 387.378 194.402 Q 390.118 191.022 390.118 184.438 A 24.932 24.932 0 0 0 389.865 180.759 Q 389.58 178.856 388.976 177.323 A 10.458 10.458 0 0 0 387.389 174.551 A 8.782 8.782 0 0 0 382.329 171.495 A 13.691 13.691 0 0 0 379.314 171.182 A 13.58 13.58 0 0 0 376.068 171.547 A 8.952 8.952 0 0 0 371.15 174.573 Q 368.355 177.965 368.355 184.438 Z M 261.62 185.344 L 255.191 185.344 L 255.191 197.429 L 261.929 197.429 A 16.167 16.167 0 0 0 264.081 197.296 Q 265.171 197.149 266.055 196.841 A 6.277 6.277 0 0 0 267.817 195.916 Q 269.702 194.473 269.79 191.475 A 10.14 10.14 0 0 0 269.795 191.177 A 7.047 7.047 0 0 0 269.597 189.454 A 4.52 4.52 0 0 0 267.773 186.758 A 6.512 6.512 0 0 0 266.048 185.924 Q 264.381 185.381 261.957 185.346 A 23.389 23.389 0 0 0 261.62 185.344 Z M 255.191 171.579 L 255.191 182.162 L 261.377 182.162 Q 264.726 182.162 266.493 181.277 A 4.528 4.528 0 0 0 267.099 180.914 A 3.888 3.888 0 0 0 268.531 178.907 Q 268.756 178.226 268.82 177.387 A 9.059 9.059 0 0 0 268.845 176.705 A 5.937 5.937 0 0 0 268.657 175.163 A 3.883 3.883 0 0 0 266.9 172.784 A 6.303 6.303 0 0 0 265.419 172.136 Q 263.926 171.68 261.721 171.598 A 27.013 27.013 0 0 0 260.714 171.579 L 255.191 171.579 Z" id="BOTTOM_labelLayer" stroke="#777777" fill="#777777" style="stroke:#777777;fill:#777777" vector-effect="non-scaling-stroke"/><path d="M 75.638 32.5 75.638 24.375 M 75.638 20.313 75.638 12.188 M 75.638 8.125 75.638 0 M 78.695 32.5 78.695 30.469 M 78.695 26.406 78.695 18.281 M 78.695 14.219 78.695 6.094 M 78.695 2.031 78.695 0 M 81.753 32.5 81.753 24.375 M 81.753 20.313 81.753 12.188 M 81.753 8.125 81.753 0 M 84.81 32.5 84.81 30.469 M 84.81 26.406 84.81 18.281 M 84.81 14.219 84.81 6.094 M 84.81 2.031 84.81 0 M 87.868 32.5 87.868 24.375 M 87.868 20.313 87.868 12.188 M 87.868 8.125 87.868 0 M 90.925 32.5 90.925 30.469 M 90.925 26.406 90.925 18.281 M 90.925 14.219 90.925 6.094 M 90.925 2.031 90.925 0 M 93.983 32.5 93.983 24.375 M 93.983 20.313 93.983 12.188 M 93.983 8.125 93.983 0 M 97.041 32.5 97.041 30.469 M 97.041 26.406 97.041 18.281 M 97.041 14.219 97.041 6.094 M 97.041 2.031 97.041 0 M 100.098 32.5 100.098 24.375 M 100.098 20.313 100.098 12.188 M 100.098 8.125 100.098 0 M 103.156 32.5 103.156 30.469 M 103.156 26.406 103.156 18.281 M 103.156 14.219 103.156 6.094 M 103.156 2.031 103.156 0 M 106.213 32.5 106.213 24.375 M 106.213 20.313 106.213 12.188 M 106.213 8.125 106.213 0 M 109.271 32.5 109.271 30.469 M 109.271 26.406 109.271 18.281 M 109.271 14.219 109.271 6.094 M 109.271 2.031 109.271 0 M 112.328 32.5 112.328 24.375 M 112.328 20.313 112.328 12.188 M 112.328 8.125 112.328 0 M 115.386 32.5 115.386 30.469 M 115.386 26.406 115.386 18.281 M 115.386 14.219 115.386 6.094 M 115.386 2.031 115.386 0 M 118.443 32.5 118.443 24.375 M 118.443 20.313 118.443 12.188 M 118.443 8.125 118.443 0 M 121.501 32.5 121.501 30.469 M 121.501 26.406 121.501 18.281 M 121.501 14.219 121.501 6.094 M 121.501 2.031 121.501 0 M 124.558 32.5 124.558 24.375 M 124.558 20.313 124.558 12.188 M 124.558 8.125 124.558 0 M 127.616 32.5 127.616 30.469 M 127.616 26.406 127.616 18.281 M 127.616 14.219 127.616 6.094 M 127.616 2.031 127.616 0 M 353.548 32.5 353.548 24.375 M 353.548 20.313 353.548 12.188 M 353.548 8.125 353.548 0 M 356.606 32.5 356.606 30.469 M 356.606 26.406 356.606 18.281 M 356.606 14.219 356.606 6.094 M 356.606 2.031 356.606 0 M 359.663 32.5 359.663 24.375 M 359.663 20.313 359.663 12.188 M 359.663 8.125 359.663 0 M 362.721 32.5 362.721 30.469 M 362.721 26.406 362.721 18.281 M 362.721 14.219 362.721 6.094 M 362.721 2.031 362.721 0 M 365.779 32.5 365.779 24.375 M 365.779 20.313 365.779 12.188 M 365.779 8.125 365.779 0 M 368.836 32.5 368.836 30.469 M 368.836 26.406 368.836 18.281 M 368.836 14.219 368.836 6.094 M 368.836 2.031 368.836 0 M 371.894 32.5 371.894 24.375 M 371.894 20.313 371.894 12.188 M 371.894 8.125 371.894 0 M 374.951 32.5 374.951 30.469 M 374.951 26.406 374.951 18.281 M 374.951 14.219 374.951 6.094 M 374.951 2.031 374.951 0 M 378.009 32.5 378.009 24.375 M 378.009 20.313 378.009 12.188 M 378.009 8.125 378.009 0 M 381.066 32.5 381.066 30.469 M 381.066 26.406 381.066 18.281 M 381.066 14.219 381.066 6.094 M 381.066 2.031 381.066 0 M 384.124 32.5 384.124 24.375 M 384.124 20.313 384.124 12.188 M 384.124 8.125 384.124 0 M 387.181 32.5 387.181 30.469 M 387.181 26.406 387.181 18.281 M 387.181 14.219 387.181 6.094 M 387.181 2.031 387.181 0 M 390.239 32.5 390.239 24.375 M 390.239 20.313 390.239 12.188 M 390.239 8.125 390.239 0 M 393.296 32.5 393.296 30.469 M 393.296 26.406 393.296 18.281 M 393.296 14.219 393.296 6.094 M 393.296 2.031 393.296 0 M 396.354 32.5 396.354 24.375 M 396.354 20.313 396.354 12.188 M 396.354 8.125 396.354 0 M 399.411 32.5 399.411 30.469 M 399.411 26.406 399.411 18.281 M 399.411 14.219 399.411 6.094 M 399.411 2.031 399.411 0 M 402.469 32.5 402.469 24.375 M 402.469 20.313 402.469 12.188 M 402.469 8.125 402.469 0 M 405.526 32.5 405.526 30.469 M 405.526 26.406 405.526 18.281 M 405.526 14.219 405.526 6.094 M 405.526 2.031 405.526 0 M 559.802 32.5 559.802 24.375 M 559.802 20.313 559.802 12.188 M 559.802 8.125 559.802 0 M 562.86 32.5 562.86 30.469 M 562.86 26.406 562.86 18.281 M 562.86 14.219 562.86 6.094 M 562.86 2.031 562.86 0 M 565.917 32.5 565.917 24.375 M 565.917 20.313 565.917 12.188 M 565.917 8.125 565.917 0 M 568.975 32.5 568.975 30.469 M 568.975 26.406 568.975 18.281 M 568.975 14.219 568.975 6.094 M 568.975 2.031 568.975 0 M 572.032 32.5 572.032 24.375 M 572.032 20.313 572.032 12.188 M 572.032 8.125 572.032 0 M 575.09 32.5 575.09 30.469 M 575.09 26.406 575.09 18.281 M 575.09 14.219 575.09 6.094 M 575.09 2.031 575.09 0 M 578.147 32.5 578.147 24.375 M 578.147 20.313 578.147 12.188 M 578.147 8.125 578.147 0 M 581.205 32.5 581.205 30.469 M 581.205 26.406 581.205 18.281 M 581.205 14.219 581.205 6.094 M 581.205 2.031 581.205 0 M 584.262 32.5 584.262 24.375 M 584.262 20.313 584.262 12.188 M 584.262 8.125 584.262 0 M 587.32 32.5 587.32 30.469 M 587.32 26.406 587.32 18.281 M 587.32 14.219 587.32 6.094 M 587.32 2.031 587.32 0 M 590.377 32.5 590.377 24.375 M 590.377 20.313 590.377 12.188 M 590.377 8.125 590.377 0 M 593.435 32.5 593.435 30.469 M 593.435 26.406 593.435 18.281 M 593.435 14.219 593.435 6.094 M 593.435 2.031 593.435 0 M 596.492 32.5 596.492 24.375 M 596.492 20.313 596.492 12.188 M 596.492 8.125 596.492 0 M 599.55 32.5 599.55 30.469 M 599.55 26.406 599.55 18.281 M 599.55 14.219 599.55 6.094 M 599.55 2.031 599.55 0 M 602.607 32.5 602.607 24.375 M 602.607 20.313 602.607 12.188 M 602.607 8.125 602.607 0 M 605.665 32.5 605.665 30.469 M 605.665 26.406 605.665 18.281 M 605.665 14.219 605.665 6.094 M 605.665 2.031 605.665 0 M 608.722 32.5 608.722 24.375 M 608.722 20.313 608.722 12.188 M 608.722 8.125 608.722 0 M 611.78 32.5 611.78 30.469 M 611.78 26.406 611.78 18.281 M 611.78 14.219 611.78 6.094 M 611.78 2.031 611.78 0 M 837.713 32.5 837.713 24.375 M 837.713 20.313 837.713 12.188 M 837.713 8.125 837.713 0 M 840.77 32.5 840.77 30.469 M 840.77 26.406 840.77 18.281 M 840.77 14.219 840.77 6.094 M 840.77 2.031 840.77 0 M 843.828 32.5 843.828 24.375 M 843.828 20.313 843.828 12.188 M 843.828 8.125 843.828 0 M 846.885 32.5 846.885 30.469 M 846.885 26.406 846.885 18.281 M 846.885 14.219 846.885 6.094 M 846.885 2.031 846.885 0 M 849.943 32.5 849.943 24.375 M 849.943 20.313 849.943 12.188 M 849.943 8.125 849.943 0 M 853 32.5 853 30.469 M 853 26.406 853 18.281 M 853 14.219 853 6.094 M 853 2.031 853 0 M 856.058 32.5 856.058 24.375 M 856.058 20.313 856.058 12.188 M 856.058 8.125 856.058 0 M 859.115 32.5 859.115 30.469 M 859.115 26.406 859.115 18.281 M 859.115 14.219 859.115 6.094 M 859.115 2.031 859.115 0 M 862.173 32.5 862.173 24.375 M 862.173 20.313 862.173 12.188 M 862.173 8.125 862.173 0 M 865.23 32.5 865.23 30.469 M 865.23 26.406 865.23 18.281 M 865.23 14.219 865.23 6.094 M 865.23 2.031 865.23 0 M 868.288 32.5 868.288 24.375 M 868.288 20.313 868.288 12.188 M 868.288 8.125 868.288 0 M 871.345 32.5 871.345 30.469 M 871.345 26.406 871.345 18.281 M 871.345 14.219 871.345 6.094 M 871.345 2.031 871.345 0 M 874.403 32.5 874.403 24.375 M 874.403 20.313 874.403 12.188 M 874.403 8.125 874.403 0 M 877.46 32.5 877.46 30.469 M 877.46 26.406 877.46 18.281 M 877.46 14.219 877.46 6.094 M 877.46 2.031 877.46 0 M 880.518 32.5 880.518 24.375 M 880.518 20.313 880.518 12.188 M 880.518 8.125 880.518 0 M 883.576 32.5 883.576 30.469 M 883.576 26.406 883.576 18.281 M 883.576 14.219 883.576 6.094 M 883.576 2.031 883.576 0 M 886.633 32.5 886.633 24.375 M 886.633 20.313 886.633 12.188 M 886.633 8.125 886.633 0 M 889.691 32.5 889.691 30.469 M 889.691 26.406 889.691 18.281 M 889.691 14.219 889.691 6.094 M 889.691 2.031 889.691 0" id="SIDE_insideCutPath" stroke="#0000FF" stroke-width="0.1" style="stroke:#0000FF;stroke-width:0.1" vector-effect="non-scaling-stroke"/><path d="M 0 0 L 0 32.5 L 4.819 32.5 L 4.819 29.5 L 10.819 29.5 L 10.819 32.5 L 16.819 32.5 L 16.819 29.5 L 22.819 29.5 L 22.819 32.5 L 28.819 32.5 L 28.819 29.5 L 34.819 29.5 L 34.819 32.5 L 40.819 32.5 L 40.819 29.5 L 46.819 29.5 L 46.819 32.5 L 52.819 32.5 L 52.819 29.5 L 58.819 29.5 L 58.819 32.5 L 64.819 32.5 L 64.819 29.5 L 70.819 29.5 L 70.819 32.5 L 75.638 32.5 L 130.616 32.5 L 143.082 32.5 L 143.082 29.5 L 149.082 29.5 L 149.082 32.5 L 155.082 32.5 L 155.082 29.5 L 161.082 29.5 L 161.082 32.5 L 167.082 32.5 L 167.082 29.5 L 173.082 29.5 L 173.082 32.5 L 179.082 32.5 L 179.082 29.5 L 185.082 29.5 L 185.082 32.5 L 191.082 32.5 L 191.082 29.5 L 197.082 29.5 L 197.082 32.5 L 203.082 32.5 L 203.082 29.5 L 209.082 29.5 L 209.082 32.5 L 215.082 32.5 L 215.082 29.5 L 221.082 29.5 L 221.082 32.5 L 227.082 32.5 L 227.082 29.5 L 233.082 29.5 L 233.082 32.5 L 239.082 32.5 L 239.082 29.5 L 245.082 29.5 L 245.082 32.5 L 251.082 32.5 L 251.082 29.5 L 257.082 29.5 L 257.082 32.5 L 263.082 32.5 L 263.082 29.5 L 269.082 29.5 L 269.082 32.5 L 275.082 32.5 L 275.082 29.5 L 281.082 29.5 L 281.082 32.5 L 287.082 32.5 L 287.082 29.5 L 293.082 29.5 L 293.082 32.5 L 299.082 32.5 L 299.082 29.5 L 305.082 29.5 L 305.082 32.5 L 311.082 32.5 L 311.082 29.5 L 317.082 29.5 L 317.082 32.5 L 323.082 32.5 L 323.082 29.5 L 329.082 29.5 L 329.082 32.5 L 335.082 32.5 L 335.082 29.5 L 341.082 29.5 L 341.082 32.5 L 347.082 32.5 L 353.548 32.5 L 408.526 32.5 L 415.164 32.5 L 415.164 29.5 L 421.164 29.5 L 421.164 32.5 L 427.164 32.5 L 427.164 29.5 L 433.164 29.5 L 433.164 32.5 L 439.164 32.5 L 439.164 29.5 L 445.164 29.5 L 445.164 32.5 L 451.164 32.5 L 451.164 29.5 L 457.164 29.5 L 457.164 32.5 L 463.164 32.5 L 463.164 29.5 L 469.164 29.5 L 469.164 32.5 L 475.164 32.5 L 475.164 29.5 L 481.164 29.5 L 481.164 32.5 L 487.164 32.5 L 487.164 29.5 L 493.164 29.5 L 493.164 32.5 L 499.164 32.5 L 499.164 29.5 L 505.164 29.5 L 505.164 32.5 L 511.164 32.5 L 511.164 29.5 L 517.164 29.5 L 517.164 32.5 L 523.164 32.5 L 523.164 29.5 L 529.164 29.5 L 529.164 32.5 L 535.164 32.5 L 535.164 29.5 L 541.164 29.5 L 541.164 32.5 L 547.164 32.5 L 547.164 29.5 L 553.164 29.5 L 553.164 32.5 L 559.802 32.5 L 614.78 32.5 L 627.246 32.5 L 627.246 29.5 L 633.246 29.5 L 633.246 32.5 L 639.246 32.5 L 639.246 29.5 L 645.246 29.5 L 645.246 32.5 L 651.246 32.5 L 651.246 29.5 L 657.246 29.5 L 657.246 32.5 L 663.246 32.5 L 663.246 29.5 L 669.246 29.5 L 669.246 32.5 L 675.246 32.5 L 675.246 29.5 L 681.246 29.5 L 681.246 32.5 L 687.246 32.5 L 687.246 29.5 L 693.246 29.5 L 693.246 32.5 L 699.246 32.5 L 699.246 29.5 L 705.246 29.5 L 705.246 32.5 L 711.246 32.5 L 711.246 29.5 L 717.246 29.5 L 717.246 32.5 L 723.246 32.5 L 723.246 29.5 L 729.246 29.5 L 729.246 32.5 L 735.246 32.5 L 735.246 29.5 L 741.246 29.5 L 741.246 32.5 L 747.246 32.5 L 747.246 29.5 L 753.246 29.5 L 753.246 32.5 L 759.246 32.5 L 759.246 29.5 L 765.246 29.5 L 765.246 32.5 L 771.246 32.5 L 771.246 29.5 L 777.246 29.5 L 777.246 32.5 L 783.246 32.5 L 783.246 29.5 L 789.246 29.5 L 789.246 32.5 L 795.246 32.5 L 795.246 29.5 L 801.246 29.5 L 801.246 32.5 L 807.246 32.5 L 807.246 29.5 L 813.246 29.5 L 813.246 32.5 L 819.246 32.5 L 819.246 29.5 L 825.246 29.5 L 825.246 32.5 L 831.246 32.5 L 837.713 32.5 L 892.691 32.5 L 897.51 32.5 L 897.51 29.5 L 903.51 29.5 L 903.51 32.5 L 909.51 32.5 L 909.51 29.5 L 915.51 29.5 L 915.51 32.5 L 921.51 32.5 L 921.51 29.5 L 927.51 29.5 L 927.51 32.5 L 933.51 32.5 L 933.51 29.5 L 939.51 29.5 L 939.51 32.5 L 945.51 32.5 L 945.51 29.5 L 951.51 29.5 L 951.51 32.5 L 957.51 32.5 L 957.51 29.5 L 963.51 29.5 L 963.51 32.5 L 968.328 32.5 L 968.328 0 L 963.51 0 L 963.51 3 L 957.51 3 L 957.51 0 L 951.51 0 L 951.51 3 L 945.51 3 L 945.51 0 L 939.51 0 L 939.51 3 L 933.51 3 L 933.51 0 L 927.51 0 L 927.51 3 L 921.51 3 L 921.51 0 L 915.51 0 L 915.51 3 L 909.51 3 L 909.51 0 L 903.51 0 L 903.51 3 L 897.51 3 L 897.51 0 L 892.691 0 L 837.713 0 L 825.246 0 L 825.246 3 L 819.246 3 L 819.246 0 L 813.246 0 L 813.246 3 L 807.246 3 L 807.246 0 L 801.246 0 L 801.246 3 L 795.246 3 L 795.246 0 L 789.246 0 L 789.246 3 L 783.246 3 L 783.246 0 L 777.246 0 L 777.246 3 L 771.246 3 L 771.246 0 L 765.246 0 L 765.246 3 L 759.246 3 L 759.246 0 L 753.246 0 L 753.246 3 L 747.246 3 L 747.246 0 L 741.246 0 L 741.246 3 L 735.246 3 L 735.246 0 L 729.246 0 L 729.246 3 L 723.246 3 L 723.246 0 L 717.246 0 L 717.246 3 L 711.246 3 L 711.246 0 L 705.246 0 L 705.246 3 L 699.246 3 L 699.246 0 L 693.246 0 L 693.246 3 L 687.246 3 L 687.246 0 L 681.246 0 L 681.246 3 L 675.246 3 L 675.246 0 L 669.246 0 L 669.246 3 L 663.246 3 L 663.246 0 L 657.246 0 L 657.246 3 L 651.246 3 L 651.246 0 L 645.246 0 L 645.246 3 L 639.246 3 L 639.246 0 L 633.246 0 L 633.246 3 L 627.246 3 L 627.246 0 L 621.246 0 L 614.78 0 L 559.802 0 L 553.164 0 L 553.164 3 L 547.164 3 L 547.164 0 L 541.164 0 L 541.164 3 L 535.164 3 L 535.164 0 L 529.164 0 L 529.164 3 L 523.164 3 L 523.164 0 L 517.164 0 L 517.164 3 L 511.164 3 L 511.164 0 L 505.164 0 L 505.164 3 L 499.164 3 L 499.164 0 L 493.164 0 L 493.164 3 L 487.164 3 L 487.164 0 L 481.164 0 L 481.164 3 L 475.164 3 L 475.164 0 L 469.164 0 L 469.164 3 L 463.164 3 L 463.164 0 L 457.164 0 L 457.164 3 L 451.164 3 L 451.164 0 L 445.164 0 L 445.164 3 L 439.164 3 L 439.164 0 L 433.164 0 L 433.164 3 L 427.164 3 L 427.164 0 L 421.164 0 L 421.164 3 L 415.164 3 L 415.164 0 L 408.526 0 L 353.548 0 L 341.082 0 L 341.082 3 L 335.082 3 L 335.082 0 L 329.082 0 L 329.082 3 L 323.082 3 L 323.082 0 L 317.082 0 L 317.082 3 L 311.082 3 L 311.082 0 L 305.082 0 L 305.082 3 L 299.082 3 L 299.082 0 L 293.082 0 L 293.082 3 L 287.082 3 L 287.082 0 L 281.082 0 L 281.082 3 L 275.082 3 L 275.082 0 L 269.082 0 L 269.082 3 L 263.082 3 L 263.082 0 L 257.082 0 L 257.082 3 L 251.082 3 L 251.082 0 L 245.082 0 L 245.082 3 L 239.082 3 L 239.082 0 L 233.082 0 L 233.082 3 L 227.082 3 L 227.082 0 L 221.082 0 L 221.082 3 L 215.082 3 L 215.082 0 L 209.082 0 L 209.082 3 L 203.082 3 L 203.082 0 L 197.082 0 L 197.082 3 L 191.082 3 L 191.082 0 L 185.082 0 L 185.082 3 L 179.082 3 L 179.082 0 L 173.082 0 L 173.082 3 L 167.082 3 L 167.082 0 L 161.082 0 L 161.082 3 L 155.082 3 L 155.082 0 L 149.082 0 L 149.082 3 L 143.082 3 L 143.082 0 L 137.082 0 L 130.616 0 L 75.638 0 L 70.819 0 L 70.819 3 L 64.819 3 L 64.819 0 L 58.819 0 L 58.819 3 L 52.819 3 L 52.819 0 L 46.819 0 L 46.819 3 L 40.819 3 L 40.819 0 L 34.819 0 L 34.819 3 L 28.819 3 L 28.819 0 L 22.819 0 L 22.819 3 L 16.819 3 L 16.819 0 L 10.819 0 L 10.819 3 L 4.819 3 L 4.819 0 L 0 0 Z" id="SIDE_outsideCutPath" stroke="#FF0000" stroke-width="0.1" style="stroke:#FF0000;stroke-width:0.1" vector-effect="non-scaling-stroke"/><path d="M 490.667 18.089 L 490.667 18.572 L 488.081 18.572 L 488.081 13.932 L 490.667 13.932 L 490.667 14.411 L 488.62 14.411 L 488.62 15.906 L 490.544 15.906 L 490.544 16.382 L 488.62 16.382 L 488.62 18.089 L 490.667 18.089 Z M 477.661 18.422 L 477.661 17.902 A 3.207 3.207 0 0 0 478.108 18.052 A 3.759 3.759 0 0 0 478.283 18.092 Q 478.62 18.162 478.95 18.162 Q 479.489 18.162 479.762 17.958 A 0.657 0.657 0 0 0 480.031 17.477 A 0.901 0.901 0 0 0 480.035 17.388 A 0.986 0.986 0 0 0 480.022 17.221 Q 479.999 17.089 479.938 16.993 A 0.655 0.655 0 0 0 479.833 16.867 Q 479.779 16.815 479.707 16.766 A 1.413 1.413 0 0 0 479.615 16.709 Q 479.425 16.6 479.071 16.467 A 9.235 9.235 0 0 0 478.924 16.413 A 3.708 3.708 0 0 1 478.564 16.264 Q 478.202 16.09 478.009 15.876 A 1.076 1.076 0 0 1 477.999 15.864 A 1.096 1.096 0 0 1 477.752 15.354 A 1.572 1.572 0 0 1 477.721 15.036 Q 477.721 14.5 478.124 14.182 A 1.41 1.41 0 0 1 478.652 13.928 Q 478.895 13.865 479.191 13.865 A 3.297 3.297 0 0 1 480.051 13.974 A 2.929 2.929 0 0 1 480.464 14.119 L 480.295 14.589 A 3.181 3.181 0 0 0 479.677 14.397 A 2.584 2.584 0 0 0 479.178 14.347 Q 478.75 14.347 478.508 14.531 A 0.592 0.592 0 0 0 478.271 14.963 A 0.819 0.819 0 0 0 478.267 15.042 A 1.074 1.074 0 0 0 478.279 15.208 Q 478.3 15.34 478.356 15.438 A 0.634 0.634 0 0 0 478.457 15.567 Q 478.511 15.621 478.582 15.672 A 1.294 1.294 0 0 0 478.656 15.72 A 1.856 1.856 0 0 0 478.801 15.799 Q 478.95 15.872 479.165 15.954 A 7.572 7.572 0 0 0 479.302 16.004 A 5.065 5.065 0 0 1 479.667 16.149 Q 480.107 16.346 480.306 16.563 A 1.022 1.022 0 0 1 480.561 17.095 A 1.432 1.432 0 0 1 480.581 17.337 Q 480.581 17.95 480.137 18.292 A 1.534 1.534 0 0 1 479.613 18.549 Q 479.396 18.611 479.139 18.628 A 3.102 3.102 0 0 1 478.931 18.635 A 5.156 5.156 0 0 1 478.463 18.615 Q 477.97 18.57 477.661 18.422 Z M 484.628 18.572 L 483.342 18.572 L 483.342 13.932 L 484.764 13.932 A 3.133 3.133 0 0 1 485.448 14.002 Q 485.9 14.103 486.236 14.35 A 1.854 1.854 0 0 1 486.446 14.531 Q 487.046 15.131 487.046 16.207 A 3.381 3.381 0 0 1 486.98 16.899 Q 486.892 17.319 486.688 17.638 A 1.833 1.833 0 0 1 486.422 17.964 Q 485.87 18.503 484.886 18.564 A 4.169 4.169 0 0 1 484.628 18.572 Z M 484.666 14.398 L 483.882 14.398 L 483.882 18.105 L 484.539 18.105 Q 485.184 18.105 485.615 17.893 A 1.443 1.443 0 0 0 485.989 17.631 A 1.503 1.503 0 0 0 486.368 16.998 Q 486.475 16.662 486.475 16.226 A 2.882 2.882 0 0 0 486.431 15.706 Q 486.378 15.42 486.263 15.196 A 1.367 1.367 0 0 0 486.019 14.858 A 1.437 1.437 0 0 0 485.432 14.506 Q 485.101 14.398 484.666 14.398 Z M 482.069 18.572 L 481.53 18.572 L 481.53 13.932 L 482.069 13.932 L 482.069 18.572 Z" id="SIDE_labelLayer" stroke="#777777" fill="#777777" style="stroke:#777777;fill:#777777" vector-effect="non-scaling-stroke"/></g></svg>